<svg width="1278" height="418" viewBox="0 0 1278 418" fill="none" xmlns="http://www.w3.org/2000/svg">
<path opacity="0.5" d="M1.71484 196.408L60.0987 196.408" stroke="white" stroke-width="2" stroke-miterlimit="10" stroke-linecap="round" stroke-linejoin="round" stroke-dasharray="6.87 6.87"/>
<path opacity="0.5" d="M39.4922 154.051H42.9265" stroke="white" stroke-width="2" stroke-miterlimit="10" stroke-linecap="round" stroke-linejoin="round"/>
<path opacity="0.5" d="M46.3594 148.328L46.3594 151.762" stroke="white" stroke-width="2" stroke-miterlimit="10" stroke-linecap="round" stroke-linejoin="round"/>
<path opacity="0.5" d="M1271.28 116.273L1271.28 416.206" stroke="white" stroke-width="2" stroke-miterlimit="10" stroke-linecap="round" stroke-linejoin="round" stroke-dasharray="6.87 6.87"/>
<path opacity="0.5" d="M46.3594 160.918L46.3594 416.204" stroke="white" stroke-width="2" stroke-miterlimit="10" stroke-linecap="round" stroke-linejoin="round" stroke-dasharray="6.87 6.87"/>
<path d="M52.082 409.338H1264.41" stroke="white" stroke-width="2" stroke-miterlimit="10"/>
<path opacity="0.5" d="M39.4922 409.338L1277 409.338" stroke="white" stroke-width="2" stroke-miterlimit="10" stroke-linecap="round" stroke-linejoin="round" stroke-dasharray="6.87 6.87"/>
<path d="M8.58203 198.695L8.58204 292.567" stroke="white" stroke-width="2" stroke-miterlimit="10"/>
<path opacity="0.5" d="M8.58203 188.395L8.58203 302.873" stroke="white" stroke-width="2" stroke-miterlimit="10" stroke-linecap="round" stroke-linejoin="round" stroke-dasharray="6.87 6.87"/>
<path opacity="0.5" d="M164.274 297.148C90.7669 297.148 75.2217 297.148 1.71484 297.148" stroke="white" stroke-width="2" stroke-miterlimit="10" stroke-linecap="round" stroke-linejoin="round" stroke-dasharray="6.87 6.87"/>
<path d="M13.1582 281.121L8.57912 297.148L4 281.121C4 281.121 6.69413 282.123 8.57912 282.123C10.4641 282.123 13.1582 281.121 13.1582 281.121Z" fill="white" stroke="white" stroke-width="2"/>
<path d="M62.3867 413.916L46.3598 409.337L62.3867 404.758C62.3867 404.758 61.385 407.452 61.385 409.337C61.385 411.222 62.3867 413.916 62.3867 413.916Z" fill="white"/>
<path d="M1252.96 413.916L1268.99 409.337L1252.96 404.758C1252.96 404.758 1253.96 407.452 1253.96 409.337C1253.96 411.222 1252.96 413.916 1252.96 413.916Z" fill="white"/>
<path d="M4.00191 212.436L8.58103 196.409L13.1602 212.436C13.1602 212.436 10.466 211.434 8.58103 211.434C6.69604 211.434 4.00191 212.436 4.00191 212.436Z" fill="white" stroke="white" stroke-width="2"/>
<path opacity="0.5" d="M1277 112.838H1273.57" stroke="white" stroke-width="2" stroke-miterlimit="10" stroke-linecap="round" stroke-linejoin="round"/>
<path opacity="0.5" d="M1271.28 107.115L1271.28 110.55" stroke="white" stroke-width="2" stroke-miterlimit="10" stroke-linecap="round" stroke-linejoin="round"/>
<path d="M1138.89 273.492V254.173L1197.38 254.173C1196.65 258.319 1195.4 262.354 1193.66 266.181C1202.82 246.747 1208.28 226.278 1215.16 207.786C1235.01 154.452 1270.13 112.951 1270.13 112.951H1003.8H987.705H987.528C981.857 133.46 960.521 150.499 920.974 155.987C912.252 157.198 902.644 157.846 892.124 157.846H861.381L855.993 29.3704L858.467 28.2596V23.9359H841.82V28.2596L844.293 29.3704L838.906 157.846L581.556 156.644L565.462 156.568L559.408 156.54V54.2798H488.704L484.495 19.709C484.495 19.709 481.881 14.2348 466.911 14.2348C441.011 14.2348 430.794 21.6128 430.794 21.6128L404.398 93.2694H352.815V102.551L359.23 106.994V123.616H288.418V154.668H229.186H189.439V143.408H191.374C191.634 143.408 191.891 143.357 192.131 143.257C192.371 143.158 192.589 143.012 192.773 142.828C192.956 142.644 193.102 142.426 193.201 142.185C193.301 141.945 193.352 141.687 193.352 141.427V135.116C193.352 134.591 193.144 134.087 192.773 133.716C192.402 133.344 191.899 133.135 191.374 133.135H188.51L187.433 125.784C187.215 124.3 186.472 122.943 185.339 121.963C184.205 120.982 182.758 120.442 181.26 120.442H158.65C157.152 120.442 155.704 120.982 154.571 121.963C153.438 122.943 152.695 124.3 152.477 125.784L151.4 133.135H148.061C147.536 133.135 147.033 133.344 146.662 133.716C146.291 134.087 146.083 134.591 146.083 135.116V141.427C146.083 141.687 146.134 141.945 146.233 142.185C146.333 142.426 146.478 142.644 146.662 142.828C146.846 143.012 147.064 143.158 147.304 143.257C147.544 143.357 147.801 143.408 148.061 143.408H150.471V154.668H46.3596C46.3596 154.668 46.0772 182.521 67.9392 200.329C94.0767 221.619 132.848 227.513 142.867 229.556C147.22 230.332 151.159 232.626 153.986 236.032C156.019 238.482 157.382 241.393 157.975 244.483C156.906 238.569 153.306 232.777 147.501 230.797H196.33V273.492H1138.89Z" fill="#022A63" fill-opacity="0.5"/>
<path d="M920.974 156.447V155.987M920.974 55.6226V155.987M925.388 53.7817C925.388 55.1495 924.281 56.2583 922.916 56.2583M925.388 53.7817C925.388 52.4139 924.281 51.3051 922.916 51.3051C921.55 51.3051 920.443 52.4139 920.443 53.7817C920.443 55.1495 921.55 56.2583 922.916 56.2583M925.388 53.7817L987.693 85.276M922.916 56.2583L987.705 107.774V98.7817L924.57 55.6226M987.705 113.38V112.951M1003.88 113.38L1003.8 112.951M229.186 155.303V154.668M229.186 66.632V154.668M230.025 66.384L294.981 117.553V108.56L232.207 65.4521M294.97 92.2458L232.675 64.5159M294.982 123.159V94.5166C294.982 93.1654 295.487 91.863 296.397 90.8658C297.308 89.8686 298.558 89.2489 299.902 89.1285C301.246 89.0082 302.586 89.396 303.658 90.2155C304.731 91.0351 305.459 92.2271 305.698 93.557L311.157 123.159M158.311 248.165C158.362 250.551 157.62 252.887 156.2 254.804C154.781 256.721 152.765 258.11 150.47 258.754H142.332V253.457C142.332 249.119 137.892 243.377 133.561 243.377V259.685H131.027C128.621 259.685 122.235 261.638 122.235 264.048C122.235 266.458 128.621 268.411 131.027 268.411H133.561V284.719C137.892 284.719 142.332 278.976 142.332 274.638V269.342H150.47L171.808 297.148H1106.49C1166.69 297.148 1182.25 289.755 1192.83 267.935M158.311 248.165C158.32 246.922 158.206 245.689 157.975 244.483M158.311 248.165C158.311 246.955 158.198 245.716 157.975 244.483M1192.83 267.935C1193.11 267.351 1193.39 266.767 1193.66 266.181M1192.83 267.935C1193.12 267.355 1193.4 266.771 1193.66 266.181M648.286 156.103V100.482M645.387 101.564L581.554 151.403V142.409L643.871 99.658M581.567 127.032L644.913 97.3023M581.556 157.008V156.644M565.381 157.008L565.462 156.568M743.082 157.039V100.59M740.184 101.564L676.351 151.403V142.409L738.668 99.658M676.364 127.968L739.71 97.3023M676.351 157.008V128.366C676.351 127.015 675.846 125.713 674.935 124.715C674.025 123.718 672.775 123.099 671.431 122.978C670.087 122.858 668.747 123.246 667.674 124.065C666.602 124.885 665.874 126.077 665.635 127.407L660.176 157.008M157.975 244.483C156.906 238.569 153.306 232.777 147.501 230.797H196.33V273.492H1138.89V254.173L1197.38 254.173C1196.65 258.319 1195.4 262.354 1193.66 266.181M157.975 244.483C157.382 241.393 156.019 238.482 153.986 236.032C151.159 232.626 147.22 230.332 142.867 229.556C132.848 227.513 94.0767 221.619 67.9392 200.329C46.0772 182.521 46.3596 154.668 46.3596 154.668H150.471V143.408H148.061C147.801 143.408 147.544 143.357 147.304 143.257C147.064 143.158 146.846 143.012 146.662 142.828C146.478 142.644 146.333 142.426 146.233 142.185C146.134 141.945 146.083 141.687 146.083 141.427V135.116C146.083 134.591 146.291 134.087 146.662 133.716C147.033 133.344 147.536 133.135 148.061 133.135H151.4L152.477 125.784C152.695 124.3 153.438 122.943 154.571 121.963C155.704 120.982 157.152 120.442 158.65 120.442H181.26C182.758 120.442 184.205 120.982 185.339 121.963C186.472 122.943 187.215 124.3 187.433 125.784L188.51 133.135H191.374C191.899 133.135 192.402 133.344 192.773 133.716C193.144 134.087 193.352 134.591 193.352 135.116V141.427C193.352 141.687 193.301 141.945 193.201 142.185C193.102 142.426 192.956 142.644 192.773 142.828C192.589 143.012 192.371 143.158 192.131 143.257C191.891 143.357 191.634 143.408 191.374 143.408H189.439V154.668H229.186M1193.66 266.181C1202.82 246.747 1208.28 226.278 1215.16 207.786C1235.01 154.452 1270.13 112.951 1270.13 112.951H1003.8M1003.8 112.951H987.705M1003.8 112.951L998.421 83.7786C998.181 82.4487 997.454 81.2567 996.381 80.4371C995.308 79.6175 993.968 79.2298 992.624 79.3501C991.28 79.4704 990.03 80.0902 989.12 81.0874C988.209 82.0845 987.704 83.3869 987.705 84.7383V112.951M987.705 112.951H987.528C981.857 133.46 960.521 150.499 920.974 155.987M920.974 155.987C912.252 157.198 902.644 157.846 892.124 157.846H861.381L855.993 29.3704L858.467 28.2596V23.9359H841.82V28.2596L844.293 29.3704L838.906 157.846L581.556 156.644M581.556 156.644L565.462 156.568M581.556 156.644V128.366C581.556 127.015 581.051 125.713 580.14 124.715C579.23 123.718 577.98 123.099 576.636 122.978C575.292 122.858 573.952 123.246 572.879 124.065C571.807 124.885 571.079 126.077 570.84 127.407L565.462 156.568M565.462 156.568L559.408 156.54V54.2798H488.704L484.495 19.709C484.495 19.709 481.881 14.2348 466.911 14.2348C441.011 14.2348 430.794 21.6128 430.794 21.6128L404.398 93.2694H352.815V102.551L359.23 106.994V123.616H288.418V154.668H229.186M232.675 63.5798C232.675 65.1308 231.419 66.3882 229.871 66.3882C228.322 66.3882 227.067 65.1308 227.067 63.5798C227.067 62.0288 228.322 60.7714 229.871 60.7714C231.419 60.7714 232.675 62.0288 232.675 63.5798ZM243.418 288.276C243.418 288.531 243.368 288.783 243.271 289.018C243.173 289.254 243.031 289.467 242.851 289.647C242.671 289.827 242.458 289.97 242.223 290.068C241.988 290.165 241.736 290.215 241.482 290.215H206.772C206.518 290.215 206.266 290.165 206.031 290.068C205.796 289.97 205.583 289.827 205.403 289.647C205.223 289.467 205.081 289.254 204.984 289.018C204.886 288.783 204.836 288.531 204.836 288.276V282.97C204.836 282.455 205.04 281.962 205.403 281.599C205.766 281.235 206.259 281.03 206.772 281.03H241.482C241.995 281.03 242.488 281.235 242.851 281.598C243.214 281.962 243.418 282.455 243.418 282.97V288.276ZM317.874 288.276C317.874 288.531 317.824 288.783 317.726 289.018C317.629 289.254 317.486 289.467 317.307 289.647C317.127 289.827 316.913 289.97 316.678 290.068C316.444 290.165 316.192 290.215 315.938 290.215H263.009C262.755 290.215 262.503 290.165 262.269 290.068C262.034 289.97 261.82 289.827 261.64 289.647C261.461 289.467 261.318 289.254 261.221 289.018C261.123 288.783 261.073 288.531 261.073 288.276V282.97C261.073 282.455 261.277 281.962 261.64 281.598C262.003 281.235 262.496 281.03 263.009 281.03H315.938C316.451 281.03 316.944 281.235 317.307 281.598C317.67 281.962 317.874 282.455 317.874 282.97V288.276ZM392.329 288.276C392.329 288.531 392.279 288.783 392.182 289.018C392.085 289.254 391.942 289.467 391.762 289.647C391.582 289.827 391.369 289.97 391.134 290.068C390.899 290.165 390.647 290.215 390.393 290.215H337.465C337.211 290.215 336.959 290.165 336.724 290.068C336.489 289.97 336.276 289.827 336.096 289.647C335.916 289.467 335.774 289.254 335.676 289.018C335.579 288.783 335.529 288.531 335.529 288.276V282.97C335.529 282.455 335.733 281.962 336.096 281.598C336.459 281.235 336.952 281.03 337.465 281.03H390.393C390.907 281.03 391.399 281.235 391.762 281.598C392.125 281.962 392.329 282.455 392.329 282.97V288.276ZM467.176 288.276C467.176 288.531 467.126 288.783 467.029 289.018C466.932 289.254 466.789 289.467 466.609 289.647C466.43 289.827 466.216 289.97 465.981 290.068C465.746 290.165 465.495 290.215 465.24 290.215H412.312C412.058 290.215 411.806 290.165 411.571 290.068C411.336 289.97 411.123 289.827 410.943 289.647C410.763 289.467 410.621 289.254 410.524 289.018C410.426 288.783 410.376 288.531 410.376 288.276V282.97C410.376 282.455 410.58 281.962 410.943 281.599C411.306 281.235 411.799 281.03 412.312 281.03H465.24C465.754 281.03 466.246 281.235 466.61 281.598C466.973 281.962 467.176 282.455 467.176 282.97V288.276ZM541.632 288.276C541.632 288.531 541.582 288.783 541.485 289.018C541.387 289.254 541.245 289.467 541.065 289.647C540.885 289.827 540.672 289.97 540.437 290.068C540.202 290.165 539.95 290.215 539.696 290.215H486.768C486.514 290.215 486.262 290.165 486.027 290.068C485.792 289.97 485.579 289.827 485.399 289.647C485.219 289.467 485.076 289.254 484.979 289.018C484.882 288.783 484.832 288.531 484.832 288.276V282.97C484.832 282.455 485.036 281.962 485.399 281.598C485.762 281.235 486.254 281.03 486.768 281.03H539.696C540.21 281.03 540.702 281.235 541.065 281.598C541.428 281.962 541.632 282.455 541.632 282.97V288.276ZM616.088 288.276C616.088 288.531 616.038 288.783 615.94 289.018C615.843 289.254 615.7 289.467 615.521 289.647C615.341 289.827 615.127 289.97 614.893 290.068C614.658 290.165 614.406 290.215 614.152 290.215H561.224C560.969 290.215 560.718 290.165 560.483 290.068C560.248 289.97 560.034 289.827 559.854 289.647C559.675 289.467 559.532 289.254 559.435 289.018C559.338 288.783 559.287 288.531 559.287 288.276V282.97C559.287 282.455 559.491 281.962 559.854 281.598C560.218 281.235 560.71 281.03 561.224 281.03H614.152C614.665 281.03 615.158 281.235 615.521 281.598C615.884 281.962 616.088 282.455 616.088 282.97V288.276ZM690.543 288.276C690.543 288.531 690.493 288.783 690.396 289.018C690.299 289.254 690.156 289.467 689.976 289.647C689.796 289.827 689.583 289.97 689.348 290.068C689.113 290.165 688.861 290.215 688.607 290.215H635.679C635.425 290.215 635.173 290.165 634.938 290.068C634.703 289.97 634.49 289.827 634.31 289.647C634.13 289.467 633.988 289.254 633.89 289.018C633.793 288.783 633.743 288.531 633.743 288.276V282.97C633.743 282.455 633.947 281.962 634.31 281.599C634.673 281.235 635.165 281.03 635.679 281.03H688.607C689.121 281.03 689.613 281.235 689.976 281.598C690.339 281.962 690.543 282.455 690.543 282.97V288.276ZM764.999 288.276C764.999 288.531 764.949 288.783 764.852 289.018C764.754 289.254 764.612 289.467 764.432 289.647C764.252 289.827 764.039 289.97 763.804 290.068C763.569 290.165 763.317 290.215 763.063 290.215H710.135C709.88 290.215 709.629 290.165 709.394 290.068C709.159 289.97 708.946 289.827 708.766 289.647C708.586 289.467 708.443 289.254 708.346 289.018C708.249 288.783 708.199 288.531 708.199 288.276V282.97C708.199 282.455 708.403 281.962 708.766 281.598C709.129 281.235 709.621 281.03 710.135 281.03H763.063C763.576 281.03 764.069 281.235 764.432 281.598C764.795 281.962 764.999 282.455 764.999 282.97L764.999 288.276ZM839.454 288.276C839.454 288.531 839.404 288.783 839.307 289.018C839.21 289.254 839.067 289.467 838.887 289.647C838.708 289.827 838.494 289.97 838.259 290.068C838.024 290.165 837.773 290.215 837.518 290.215H784.59C784.336 290.215 784.084 290.165 783.849 290.068C783.615 289.97 783.401 289.827 783.221 289.647C783.042 289.467 782.899 289.254 782.802 289.018C782.704 288.783 782.654 288.531 782.654 288.276V282.97C782.654 282.455 782.858 281.962 783.221 281.598C783.584 281.235 784.077 281.03 784.59 281.03H837.518C838.032 281.03 838.525 281.235 838.888 281.598C839.251 281.962 839.455 282.455 839.455 282.97L839.454 288.276ZM913.91 288.276C913.91 288.531 913.86 288.783 913.763 289.018C913.665 289.254 913.523 289.467 913.343 289.647C913.163 289.827 912.95 289.97 912.715 290.068C912.48 290.165 912.228 290.215 911.974 290.215H859.046C858.792 290.215 858.54 290.165 858.305 290.068C858.07 289.97 857.857 289.827 857.677 289.647C857.497 289.467 857.355 289.254 857.257 289.018C857.16 288.783 857.11 288.531 857.11 288.276V282.97C857.11 282.455 857.314 281.962 857.677 281.598C858.04 281.235 858.532 281.03 859.046 281.03H911.974C912.488 281.03 912.98 281.235 913.343 281.598C913.706 281.962 913.91 282.455 913.91 282.97L913.91 288.276ZM988.366 288.276C988.366 288.531 988.316 288.783 988.218 289.018C988.121 289.254 987.978 289.467 987.799 289.647C987.619 289.827 987.405 289.97 987.171 290.068C986.936 290.165 986.684 290.215 986.43 290.215H933.501C933.247 290.215 932.995 290.165 932.761 290.068C932.526 289.97 932.312 289.827 932.133 289.647C931.953 289.467 931.81 289.254 931.713 289.018C931.616 288.783 931.565 288.531 931.565 288.276V282.97C931.565 282.455 931.769 281.962 932.132 281.598C932.496 281.235 932.988 281.03 933.501 281.03H986.43C986.943 281.03 987.436 281.235 987.799 281.598C988.162 281.962 988.366 282.455 988.366 282.97V288.276ZM1062.82 288.276C1062.82 288.531 1062.77 288.783 1062.67 289.018C1062.58 289.254 1062.43 289.467 1062.25 289.647C1062.07 289.827 1061.86 289.97 1061.63 290.068C1061.39 290.165 1061.14 290.215 1060.89 290.215H1007.96C1007.7 290.215 1007.45 290.165 1007.22 290.068C1006.98 289.97 1006.77 289.827 1006.59 289.647C1006.41 289.467 1006.27 289.254 1006.17 289.018C1006.07 288.783 1006.02 288.531 1006.02 288.276V282.97C1006.02 282.455 1006.22 281.962 1006.59 281.598C1006.95 281.235 1007.44 281.03 1007.96 281.03H1060.89C1061.4 281.03 1061.89 281.235 1062.25 281.598C1062.62 281.962 1062.82 282.455 1062.82 282.97V288.276ZM1137.28 288.276C1137.28 288.531 1137.23 288.783 1137.13 289.018C1137.03 289.254 1136.89 289.467 1136.71 289.647C1136.53 289.827 1136.32 289.97 1136.08 290.068C1135.85 290.165 1135.6 290.215 1135.34 290.215H1082.41C1082.16 290.215 1081.91 290.165 1081.67 290.068C1081.44 289.97 1081.22 289.827 1081.04 289.647C1080.86 289.467 1080.72 289.254 1080.62 289.018C1080.53 288.783 1080.48 288.531 1080.48 288.276V282.97C1080.48 282.455 1080.68 281.962 1081.04 281.598C1081.41 281.235 1081.9 281.03 1082.41 281.03H1135.34C1135.85 281.03 1136.35 281.235 1136.71 281.598C1137.07 281.962 1137.28 282.455 1137.28 282.97V288.276ZM648.816 99.2821C648.816 100.65 647.709 101.759 646.343 101.759C644.978 101.759 643.871 100.65 643.871 99.2821C643.871 97.9143 644.978 96.8055 646.343 96.8055C647.709 96.8055 648.816 97.9143 648.816 99.2821ZM743.613 99.2821C743.613 100.65 742.506 101.759 741.14 101.759C739.775 101.759 738.668 100.65 738.668 99.2821C738.668 97.9143 739.775 96.8055 741.14 96.8055C742.506 96.8055 743.613 97.9143 743.613 99.2821ZM850.143 20.2788C853.241 20.2771 856.234 19.1565 858.574 17.1228C860.913 15.089 862.442 12.2784 862.88 9.20673H853.889L853.01 4.23266C852.899 3.55181 852.549 2.93291 852.024 2.48641C851.498 2.0399 850.832 1.79483 850.143 1.79492C849.454 1.79483 848.787 2.0399 848.262 2.48641C847.737 2.93292 847.387 3.55181 847.275 4.23266L846.397 9.20673H837.406C837.844 12.2784 839.372 15.089 841.712 17.1228C844.052 19.1566 847.045 20.2771 850.143 20.2788Z" stroke="url(#paint0_radial_0_4)" stroke-width="2" stroke-miterlimit="10"/>
<mask id="mask0_0_4" style="mask-type:alpha" maskUnits="userSpaceOnUse" x="46" y="1" width="1225" height="290">
<path d="M922.916 56.2583C924.281 56.2583 925.388 55.1495 925.388 53.7817C925.388 52.4139 924.281 51.3051 922.916 51.3051C921.55 51.3051 920.443 52.4139 920.443 53.7817C920.443 55.1495 921.55 56.2583 922.916 56.2583Z" fill="#D9D9D9"/>
<path d="M922.916 56.2583L987.705 107.774V98.7817L924.57 55.6226" fill="#D9D9D9"/>
<path d="M987.705 113.38V84.7383C987.704 83.3869 988.209 82.0845 989.12 81.0874C990.03 80.0902 991.28 79.4705 992.624 79.3501C993.968 79.2298 995.308 79.6175 996.381 80.4371C997.454 81.2567 998.181 82.4487 998.421 83.7786L1003.88 113.38" fill="#D9D9D9"/>
<path d="M229.871 66.3882C231.419 66.3882 232.675 65.1308 232.675 63.5798C232.675 62.0288 231.419 60.7714 229.871 60.7714C228.322 60.7714 227.067 62.0288 227.067 63.5798C227.067 65.1308 228.322 66.3882 229.871 66.3882Z" fill="#D9D9D9"/>
<path d="M230.025 66.384L294.981 117.553V108.56L232.207 65.4521" fill="#D9D9D9"/>
<path d="M294.982 123.159V94.5166C294.982 93.1654 295.487 91.863 296.397 90.8658C297.308 89.8686 298.558 89.2489 299.902 89.1285C301.246 89.0082 302.586 89.396 303.658 90.2155C304.731 91.0351 305.459 92.2271 305.698 93.557L311.157 123.159" fill="#D9D9D9"/>
<path d="M646.343 101.759C647.709 101.759 648.816 100.65 648.816 99.2821C648.816 97.9143 647.709 96.8055 646.343 96.8055C644.978 96.8055 643.871 97.9143 643.871 99.2821C643.871 100.65 644.978 101.759 646.343 101.759Z" fill="#D9D9D9"/>
<path d="M645.387 101.564L581.554 151.403V142.409L643.871 99.658" fill="#D9D9D9"/>
<path d="M581.556 157.008V128.366C581.556 127.015 581.051 125.713 580.14 124.715C579.23 123.718 577.98 123.099 576.636 122.978C575.292 122.858 573.952 123.246 572.879 124.065C571.807 124.885 571.079 126.077 570.84 127.407L565.381 157.008" fill="#D9D9D9"/>
<path d="M741.14 101.759C742.506 101.759 743.613 100.65 743.613 99.2821C743.613 97.9143 742.506 96.8055 741.14 96.8055C739.775 96.8055 738.668 97.9143 738.668 99.2821C738.668 100.65 739.775 101.759 741.14 101.759Z" fill="#D9D9D9"/>
<path d="M740.184 101.564L676.351 151.403V142.409L738.668 99.658" fill="#D9D9D9"/>
<path d="M676.351 157.008V128.366C676.351 127.015 675.846 125.713 674.935 124.715C674.025 123.718 672.775 123.099 671.431 122.978C670.087 122.858 668.747 123.246 667.674 124.065C666.602 124.885 665.874 126.077 665.635 127.407L660.176 157.008" fill="#D9D9D9"/>
<path d="M850.143 20.2788C853.241 20.2771 856.234 19.1565 858.574 17.1228C860.913 15.089 862.442 12.2784 862.88 9.20673H853.889L853.01 4.23266C852.899 3.55181 852.549 2.93291 852.024 2.48641C851.498 2.0399 850.832 1.79483 850.143 1.79492C849.454 1.79483 848.787 2.0399 848.262 2.48641C847.737 2.93292 847.387 3.55181 847.275 4.23266L846.397 9.20673H837.406C837.844 12.2784 839.372 15.089 841.712 17.1228C844.052 19.1566 847.045 20.2771 850.143 20.2788Z" fill="#D9D9D9"/>
<path fill-rule="evenodd" clip-rule="evenodd" d="M892.124 157.846C950.348 157.846 980.607 137.984 987.528 112.951H1270.13C1270.13 112.951 1235.01 154.452 1215.16 207.786C1212.82 214.076 1210.64 220.595 1208.43 227.224C1204.14 240.083 1199.71 253.356 1193.67 266.179C1195.4 262.352 1196.65 258.318 1197.38 254.173L1138.89 254.173V273.492H196.33V230.797H147.501C153.306 232.777 156.906 238.569 157.975 244.483C157.382 241.393 156.019 238.482 153.986 236.032C151.159 232.626 147.22 230.332 142.867 229.556C142.031 229.385 140.995 229.188 139.783 228.957L139.78 228.957C126.462 226.422 91.8946 219.842 67.9392 200.329C46.0772 182.521 46.3596 154.668 46.3596 154.668H150.471V143.408H148.061C147.801 143.408 147.544 143.357 147.304 143.257C147.064 143.158 146.846 143.012 146.662 142.828C146.478 142.644 146.333 142.426 146.233 142.185C146.134 141.945 146.083 141.687 146.083 141.427V135.116C146.083 134.591 146.291 134.087 146.662 133.716C147.033 133.344 147.536 133.135 148.061 133.135H151.4L152.477 125.784C152.695 124.3 153.438 122.943 154.571 121.963C155.704 120.982 157.152 120.442 158.65 120.442H181.26C182.758 120.442 184.205 120.982 185.339 121.963C186.472 122.943 187.215 124.3 187.433 125.784L188.51 133.135H191.374C191.899 133.135 192.402 133.344 192.773 133.716C193.144 134.087 193.352 134.591 193.352 135.116V141.427C193.352 141.687 193.301 141.945 193.201 142.185C193.102 142.426 192.956 142.644 192.773 142.828C192.589 143.012 192.371 143.158 192.131 143.257C191.891 143.357 191.634 143.408 191.374 143.408H189.439V154.668H288.418V123.616H359.23V106.994L352.815 102.551V93.2694H404.398L430.794 21.6128C430.794 21.6128 441.011 14.2348 466.911 14.2348C481.881 14.2348 484.495 19.709 484.495 19.709L488.704 54.2798H559.408V156.54L838.906 157.846L844.293 29.3704L841.82 28.2596V23.9359H858.467V28.2596L855.993 29.3704L861.381 157.846H892.124ZM157.975 244.483C158.206 245.689 158.32 246.922 158.311 248.165C158.311 246.955 158.198 245.716 157.975 244.483ZM243.418 288.276C243.418 288.531 243.368 288.783 243.271 289.018C243.173 289.254 243.031 289.467 242.851 289.647C242.671 289.827 242.458 289.97 242.223 290.068C241.988 290.165 241.736 290.215 241.482 290.215H206.772C206.518 290.215 206.266 290.165 206.031 290.068C205.796 289.97 205.583 289.827 205.403 289.647C205.223 289.467 205.081 289.254 204.984 289.018C204.886 288.783 204.836 288.531 204.836 288.276V282.97C204.836 282.455 205.04 281.962 205.403 281.599C205.766 281.235 206.259 281.03 206.772 281.03H241.482C241.995 281.03 242.488 281.235 242.851 281.598C243.214 281.962 243.418 282.455 243.418 282.97V288.276ZM317.874 288.276C317.874 288.531 317.824 288.783 317.726 289.018C317.629 289.254 317.486 289.467 317.307 289.647C317.127 289.827 316.913 289.97 316.678 290.068C316.444 290.165 316.192 290.215 315.938 290.215H263.009C262.755 290.215 262.503 290.165 262.269 290.068C262.034 289.97 261.82 289.827 261.64 289.647C261.461 289.467 261.318 289.254 261.221 289.018C261.123 288.783 261.073 288.531 261.073 288.276V282.97C261.073 282.455 261.277 281.962 261.64 281.598C262.003 281.235 262.496 281.03 263.009 281.03H315.938C316.451 281.03 316.944 281.235 317.307 281.598C317.67 281.962 317.874 282.455 317.874 282.97V288.276ZM392.329 288.276C392.329 288.531 392.279 288.783 392.182 289.018C392.085 289.254 391.942 289.467 391.762 289.647C391.582 289.827 391.369 289.97 391.134 290.068C390.899 290.165 390.647 290.215 390.393 290.215H337.465C337.211 290.215 336.959 290.165 336.724 290.068C336.489 289.97 336.276 289.827 336.096 289.647C335.916 289.467 335.774 289.254 335.676 289.018C335.579 288.783 335.529 288.531 335.529 288.276V282.97C335.529 282.455 335.733 281.962 336.096 281.598C336.459 281.235 336.952 281.03 337.465 281.03H390.393C390.907 281.03 391.399 281.235 391.762 281.598C392.125 281.962 392.329 282.455 392.329 282.97V288.276ZM467.176 288.276C467.176 288.531 467.126 288.783 467.029 289.018C466.932 289.254 466.789 289.467 466.609 289.647C466.43 289.827 466.216 289.97 465.981 290.068C465.746 290.165 465.495 290.215 465.24 290.215H412.312C412.058 290.215 411.806 290.165 411.571 290.068C411.336 289.97 411.123 289.827 410.943 289.647C410.763 289.467 410.621 289.254 410.524 289.018C410.426 288.783 410.376 288.531 410.376 288.276V282.97C410.376 282.455 410.58 281.962 410.943 281.599C411.306 281.235 411.799 281.03 412.312 281.03H465.24C465.754 281.03 466.246 281.235 466.61 281.598C466.973 281.962 467.176 282.455 467.176 282.97V288.276ZM541.632 288.276C541.632 288.531 541.582 288.783 541.485 289.018C541.387 289.254 541.245 289.467 541.065 289.647C540.885 289.827 540.672 289.97 540.437 290.068C540.202 290.165 539.95 290.215 539.696 290.215H486.768C486.514 290.215 486.262 290.165 486.027 290.068C485.792 289.97 485.579 289.827 485.399 289.647C485.219 289.467 485.076 289.254 484.979 289.018C484.882 288.783 484.832 288.531 484.832 288.276V282.97C484.832 282.455 485.036 281.962 485.399 281.598C485.762 281.235 486.254 281.03 486.768 281.03H539.696C540.21 281.03 540.702 281.235 541.065 281.598C541.428 281.962 541.632 282.455 541.632 282.97V288.276ZM616.088 288.276C616.088 288.531 616.038 288.783 615.94 289.018C615.843 289.254 615.7 289.467 615.521 289.647C615.341 289.827 615.127 289.97 614.893 290.068C614.658 290.165 614.406 290.215 614.152 290.215H561.224C560.969 290.215 560.718 290.165 560.483 290.068C560.248 289.97 560.034 289.827 559.854 289.647C559.675 289.467 559.532 289.254 559.435 289.018C559.338 288.783 559.287 288.531 559.287 288.276V282.97C559.287 282.455 559.491 281.962 559.854 281.598C560.218 281.235 560.71 281.03 561.224 281.03H614.152C614.665 281.03 615.158 281.235 615.521 281.598C615.884 281.962 616.088 282.455 616.088 282.97V288.276ZM690.543 288.276C690.543 288.531 690.493 288.783 690.396 289.018C690.299 289.254 690.156 289.467 689.976 289.647C689.796 289.827 689.583 289.97 689.348 290.068C689.113 290.165 688.861 290.215 688.607 290.215H635.679C635.425 290.215 635.173 290.165 634.938 290.068C634.703 289.97 634.49 289.827 634.31 289.647C634.13 289.467 633.988 289.254 633.89 289.018C633.793 288.783 633.743 288.531 633.743 288.276V282.97C633.743 282.455 633.947 281.962 634.31 281.599C634.673 281.235 635.165 281.03 635.679 281.03H688.607C689.121 281.03 689.613 281.235 689.976 281.598C690.339 281.962 690.543 282.455 690.543 282.97V288.276ZM764.999 288.276C764.999 288.531 764.949 288.783 764.852 289.018C764.754 289.254 764.612 289.467 764.432 289.647C764.252 289.827 764.039 289.97 763.804 290.068C763.569 290.165 763.317 290.215 763.063 290.215H710.135C709.88 290.215 709.629 290.165 709.394 290.068C709.159 289.97 708.946 289.827 708.766 289.647C708.586 289.467 708.443 289.254 708.346 289.018C708.249 288.783 708.199 288.531 708.199 288.276V282.97C708.199 282.455 708.403 281.962 708.766 281.598C709.129 281.235 709.621 281.03 710.135 281.03H763.063C763.576 281.03 764.069 281.235 764.432 281.598C764.795 281.962 764.999 282.455 764.999 282.97L764.999 288.276ZM839.454 288.276C839.454 288.531 839.404 288.783 839.307 289.018C839.21 289.254 839.067 289.467 838.887 289.647C838.708 289.827 838.494 289.97 838.259 290.068C838.024 290.165 837.773 290.215 837.518 290.215H784.59C784.336 290.215 784.084 290.165 783.849 290.068C783.615 289.97 783.401 289.827 783.221 289.647C783.042 289.467 782.899 289.254 782.802 289.018C782.704 288.783 782.654 288.531 782.654 288.276V282.97C782.654 282.455 782.858 281.962 783.221 281.598C783.584 281.235 784.077 281.03 784.59 281.03H837.518C838.032 281.03 838.524 281.235 838.888 281.598C839.251 281.962 839.455 282.455 839.455 282.97L839.454 288.276ZM913.91 288.276C913.91 288.531 913.86 288.783 913.763 289.018C913.665 289.254 913.523 289.467 913.343 289.647C913.163 289.827 912.95 289.97 912.715 290.068C912.48 290.165 912.228 290.215 911.974 290.215H859.046C858.792 290.215 858.54 290.165 858.305 290.068C858.07 289.97 857.857 289.827 857.677 289.647C857.497 289.467 857.355 289.254 857.257 289.018C857.16 288.783 857.11 288.531 857.11 288.276V282.97C857.11 282.455 857.314 281.962 857.677 281.598C858.04 281.235 858.532 281.03 859.046 281.03H911.974C912.488 281.03 912.98 281.235 913.343 281.598C913.706 281.962 913.91 282.455 913.91 282.97L913.91 288.276ZM988.366 288.276C988.366 288.531 988.316 288.783 988.218 289.018C988.121 289.254 987.978 289.467 987.799 289.647C987.619 289.827 987.405 289.97 987.171 290.068C986.936 290.165 986.684 290.215 986.43 290.215H933.501C933.247 290.215 932.995 290.165 932.761 290.068C932.526 289.97 932.312 289.827 932.133 289.647C931.953 289.467 931.81 289.254 931.713 289.018C931.616 288.783 931.565 288.531 931.565 288.276V282.97C931.565 282.455 931.769 281.962 932.132 281.598C932.496 281.235 932.988 281.03 933.501 281.03H986.43C986.943 281.03 987.436 281.235 987.799 281.598C988.162 281.962 988.366 282.455 988.366 282.97V288.276ZM1062.82 288.276C1062.82 288.531 1062.77 288.783 1062.67 289.018C1062.58 289.254 1062.43 289.467 1062.25 289.647C1062.07 289.827 1061.86 289.97 1061.63 290.068C1061.39 290.165 1061.14 290.215 1060.89 290.215H1007.96C1007.7 290.215 1007.45 290.165 1007.22 290.068C1006.98 289.97 1006.77 289.827 1006.59 289.647C1006.41 289.467 1006.27 289.254 1006.17 289.018C1006.07 288.783 1006.02 288.531 1006.02 288.276V282.97C1006.02 282.455 1006.22 281.962 1006.59 281.598C1006.95 281.235 1007.44 281.03 1007.96 281.03H1060.89C1061.4 281.03 1061.89 281.235 1062.25 281.598C1062.62 281.962 1062.82 282.455 1062.82 282.97V288.276ZM1137.28 288.276C1137.28 288.531 1137.23 288.783 1137.13 289.018C1137.03 289.254 1136.89 289.467 1136.71 289.647C1136.53 289.827 1136.32 289.97 1136.08 290.068C1135.85 290.165 1135.6 290.215 1135.34 290.215H1082.41C1082.16 290.215 1081.91 290.165 1081.67 290.068C1081.44 289.97 1081.22 289.827 1081.04 289.647C1080.86 289.467 1080.72 289.254 1080.62 289.018C1080.53 288.783 1080.48 288.531 1080.48 288.276V282.97C1080.48 282.455 1080.68 281.962 1081.04 281.598C1081.41 281.235 1081.9 281.03 1082.41 281.03H1135.34C1135.85 281.03 1136.35 281.235 1136.71 281.598C1137.07 281.962 1137.28 282.455 1137.28 282.97V288.276Z" fill="#D9D9D9"/>
</mask>
<g mask="url(#mask0_0_4)">
<path opacity="0.1" d="M1078.89 1681.59C1078.89 1681.59 951.44 1586.69 805.702 1317.52C659.963 1048.34 645.5 540.5 645.5 540.5M645.5 540.5C645.5 540.5 677.678 1047.53 832.721 1311.45C987.765 1575.38 1118.45 1665.77 1118.45 1665.77M645.5 540.5C645.5 540.5 695.353 1046.1 859.513 1304.45C1023.67 1562.8 1157.43 1648.58 1157.43 1648.58M645.5 540.5C645.5 540.5 712.968 1044.05 886.044 1296.51C1059.12 1548.98 1195.79 1630.04 1195.79 1630.04M645.5 540.5C645.5 540.5 730.5 1041.39 912.282 1287.66C1094.06 1533.93 1233.48 1610.17 1233.48 1610.17M645.5 540.5C645.5 540.5 747.929 1038.12 938.196 1277.89C1128.46 1517.67 1270.45 1589 1270.45 1589M645.5 540.5C645.5 540.5 765.233 1034.24 963.752 1267.23C1162.27 1500.22 1306.66 1566.55 1306.66 1566.55M645.5 540.5C645.5 540.5 782.392 1029.76 988.92 1255.68C1195.45 1481.6 1342.07 1542.85 1342.07 1542.85M645.5 540.5C645.5 540.5 799.383 1024.68 1013.67 1243.26C1227.96 1461.84 1376.62 1517.93 1376.62 1517.93M645.5 540.5C645.5 540.5 816.187 1019.02 1037.97 1229.98C1259.76 1440.95 1410.29 1491.82 1410.29 1491.82M645.5 540.5C645.5 540.5 832.783 1012.77 1061.8 1215.87C1290.81 1418.96 1443.03 1464.55 1443.03 1464.55M645.5 540.5C645.5 540.5 849.151 1005.95 1085.11 1200.93C1321.07 1395.9 1474.79 1436.15 1474.79 1436.15M645.5 540.5C645.5 540.5 865.271 998.554 1107.89 1185.18C1350.51 1371.81 1505.54 1406.66 1505.54 1406.66M645.5 540.5C645.5 540.5 881.123 990.605 1130.11 1168.65C1379.1 1346.7 1535.25 1376.12 1535.25 1376.12M645.5 540.5C645.5 540.5 896.688 982.108 1151.74 1151.36C1406.79 1320.6 1563.87 1344.56 1563.87 1344.56M645.5 540.5C645.5 540.5 911.947 973.073 1172.75 1133.32C1433.55 1293.56 1591.37 1312.02 1591.37 1312.02M645.5 540.5C645.5 540.5 926.881 963.51 1193.12 1114.55C1459.35 1265.6 1617.72 1278.54 1617.72 1278.54M645.5 540.5C645.5 540.5 941.472 953.433 1212.82 1095.09C1484.16 1236.75 1642.88 1244.16 1642.88 1244.16M645.5 540.5C645.5 540.5 955.703 942.852 1231.83 1074.96C1507.95 1207.06 1666.83 1208.92 1666.83 1208.92M645.5 540.5C645.5 540.5 969.556 931.781 1250.12 1054.17C1530.68 1176.55 1689.54 1172.87 1689.54 1172.87M645.5 540.5C645.5 540.5 983.014 920.233 1267.68 1032.75C1552.34 1145.27 1710.97 1136.05 1710.97 1136.05M645.5 540.5C645.5 540.5 996.061 908.223 1284.48 1010.74C1572.9 1113.26 1731.11 1098.5 1731.11 1098.5M645.5 540.5C645.5 540.5 1008.68 895.764 1300.5 988.154C1592.32 1080.54 1749.92 1060.28 1749.92 1060.28M645.5 540.5C645.5 540.5 1020.86 882.873 1315.72 965.022C1610.59 1047.17 1767.39 1021.42 1767.39 1021.42M645.5 540.5C645.5 540.5 1032.58 869.565 1330.13 941.373C1627.69 1013.18 1783.49 981.969 1783.49 981.969M645.5 540.5C645.5 540.5 1043.83 855.855 1343.71 917.235C1643.58 978.615 1798.2 941.985 1798.2 941.985M645.5 540.5C645.5 540.5 1054.59 841.762 1356.43 892.639C1658.27 943.515 1811.51 901.511 1811.51 901.511M645.5 540.5C645.5 540.5 1064.85 827.301 1368.28 867.613C1671.71 907.925 1823.4 860.598 1823.4 860.598M645.5 540.5C645.5 540.5 1074.61 812.491 1379.26 842.189C1683.91 871.887 1833.85 819.295 1833.85 819.295M645.5 540.5C645.5 540.5 1083.84 797.35 1389.34 816.397C1694.85 835.445 1842.86 777.652 1842.86 777.652M645.5 540.5C645.5 540.5 1092.54 781.896 1398.52 790.27C1704.5 798.644 1850.41 735.721 1850.41 735.721M645.5 540.5C645.5 540.5 1100.69 766.147 1406.78 763.837C1712.86 761.528 1856.48 693.551 1856.48 693.551M645.5 540.5C645.5 540.5 1108.29 750.124 1414.11 737.133C1719.93 724.143 1861.09 651.195 1861.09 651.195M645.5 540.5C645.5 540.5 1115.32 733.845 1420.5 710.19C1725.68 686.534 1864.21 608.705 1864.21 608.705M645.5 540.5C645.5 540.5 1121.78 717.331 1425.95 683.039C1730.12 648.747 1865.85 566.13 1865.85 566.13M645.5 540.5C645.5 540.5 1127.66 700.601 1430.45 655.715C1733.24 610.829 1866 523.525 1866 523.525M645.5 540.5C645.5 540.5 1132.96 683.676 1433.99 628.25C1735.03 572.824 1864.66 480.941 1864.66 480.941M645.5 540.5C645.5 540.5 1137.66 666.577 1436.57 600.679C1735.49 534.78 1861.84 438.429 1861.84 438.429M645.5 540.5C645.5 540.5 1141.76 649.324 1438.19 573.034C1734.63 496.744 1857.54 396.041 1857.54 396.041M645.5 540.5C645.5 540.5 1145.25 631.939 1438.85 545.35C1732.44 458.76 1851.76 353.83 1851.76 353.83M645.5 540.5C645.5 540.5 1148.14 614.442 1438.53 517.659C1728.92 420.877 1844.51 311.846 1844.51 311.846M645.5 540.5C645.5 540.5 1150.41 596.855 1437.25 489.997C1724.09 383.139 1835.8 270.14 1835.8 270.14M645.5 540.5C645.5 540.5 1152.07 579.2 1435.01 462.396C1717.94 345.592 1825.64 228.764 1825.64 228.764M645.5 540.5C645.5 540.5 1153.11 561.497 1431.8 434.89C1710.49 308.283 1814.04 187.768 1814.04 187.768M645.5 540.5C645.5 540.5 1153.54 543.769 1427.64 407.513C1701.73 271.257 1801.02 147.201 1801.02 147.201M645.5 540.5C645.5 540.5 1153.34 526.037 1422.52 380.298C1691.69 234.559 1786.59 107.114 1786.59 107.114M645.5 540.5C645.5 540.5 1152.53 508.322 1416.45 353.278C1680.38 198.234 1770.77 67.5541 1770.77 67.5541M645.5 540.5C645.5 540.5 1151.1 490.647 1409.45 326.486C1667.8 162.326 1753.58 28.5709 1753.58 28.5709M645.5 540.5C645.5 540.5 1149.05 473.032 1401.52 299.955C1653.98 126.878 1735.04 -9.78866 1735.04 -9.78866M645.5 540.5C645.5 540.5 1146.39 455.499 1392.66 273.717C1638.93 91.935 1715.17 -47.4776 1715.17 -47.4776M645.5 540.5C645.5 540.5 1143.12 438.07 1382.89 247.804C1622.67 57.5379 1694 -84.4503 1694 -84.4503M645.5 540.5C645.5 540.5 1139.24 420.766 1372.23 222.248C1605.22 23.7293 1671.55 -120.662 1671.55 -120.662M645.5 540.5C645.5 540.5 1134.76 403.608 1360.68 197.079C1586.6 -9.44964 1647.85 -156.067 1647.85 -156.067M645.5 540.5C645.5 540.5 1129.68 386.617 1348.26 172.329C1566.84 -41.9587 1622.93 -190.625 1622.93 -190.625M645.5 540.5C645.5 540.5 1124.02 369.813 1334.98 148.027C1545.95 -73.7581 1596.82 -224.291 1596.82 -224.291M645.5 540.5C645.5 540.5 1117.77 353.217 1320.87 124.204C1523.96 -104.809 1569.55 -257.025 1569.55 -257.025M645.5 540.5C645.5 540.5 1110.95 336.849 1305.93 100.888C1500.91 -135.074 1541.15 -288.788 1541.15 -288.788M645.5 540.5C645.5 540.5 1103.55 320.729 1290.18 78.1067C1476.81 -164.515 1511.66 -319.541 1511.66 -319.541M645.5 540.5C645.5 540.5 1095.61 304.877 1273.65 55.8894C1451.7 -193.098 1481.12 -349.246 1481.12 -349.246M645.5 540.5C645.5 540.5 1087.11 289.312 1256.36 34.2625C1425.6 -220.787 1449.56 -377.866 1449.56 -377.866M645.5 540.5C645.5 540.5 1078.07 274.053 1238.32 13.2524C1398.56 -247.548 1417.02 -405.368 1417.02 -405.368M645.5 540.5C645.5 540.5 1068.51 259.119 1219.55 -7.11554C1370.6 -273.35 1383.54 -431.718 1383.54 -431.718M645.5 540.5C645.5 540.5 1058.43 244.527 1200.09 -26.816C1341.75 -298.159 1349.16 -456.882 1349.16 -456.882M645.5 540.5C645.5 540.5 1047.85 230.297 1179.96 -45.8254C1312.06 -321.947 1313.92 -480.832 1313.92 -480.832M645.5 540.5C645.5 540.5 1036.78 216.444 1159.17 -64.1206C1281.56 -344.685 1277.87 -503.538 1277.87 -503.538M645.5 540.5C645.5 540.5 1025.23 202.986 1137.75 -81.6789C1250.28 -366.343 1241.05 -524.971 1241.05 -524.971M645.5 540.5C645.5 540.5 1013.22 189.939 1115.74 -98.4794C1218.26 -386.897 1203.5 -545.107 1203.5 -545.107M645.5 540.5C645.5 540.5 1000.76 177.319 1093.15 -114.501C1185.54 -406.321 1165.28 -563.919 1165.28 -563.919M645.5 540.5C645.5 540.5 987.873 165.142 1070.02 -129.725C1152.17 -424.592 1126.42 -581.386 1126.42 -581.386M645.5 540.5C645.5 540.5 974.565 153.422 1046.37 -144.133C1118.18 -441.687 1086.97 -597.487 1086.97 -597.487M645.5 540.5C645.5 540.5 960.856 142.173 1022.24 -157.706C1083.62 -457.584 1046.99 -612.2 1046.99 -612.2M645.5 540.5C645.5 540.5 917.491 111.392 947.189 -193.26C976.888 -497.912 924.296 -647.852 924.296 -647.852M645.5 540.5C645.5 540.5 902.35 102.161 921.398 -203.342C940.446 -508.845 882.653 -656.858 882.653 -656.858M645.5 540.5C645.5 540.5 886.896 93.4639 895.27 -212.518C903.644 -518.499 840.722 -664.405 840.722 -664.405M645.5 540.5C645.5 540.5 871.147 85.3117 868.838 -220.776C866.528 -526.863 798.552 -670.484 798.552 -670.484M645.5 540.5C645.5 540.5 855.124 77.7141 842.134 -228.106C829.144 -533.927 756.196 -675.088 756.196 -675.088M645.5 540.5C645.5 540.5 838.845 70.6801 815.19 -234.501C791.535 -539.681 713.705 -678.211 713.705 -678.211M645.5 540.5C645.5 540.5 822.331 64.2187 788.04 -239.95C753.748 -544.12 671.132 -679.849 671.132 -679.849M645.5 540.5C645.5 540.5 805.602 58.3374 760.715 -244.45C715.829 -547.237 628.526 -680 628.526 -680M645.5 540.5C645.5 540.5 788.677 53.0438 733.251 -247.992C677.825 -549.029 585.942 -678.664 585.942 -678.664M645.5 540.5C645.5 540.5 771.578 48.3439 705.68 -250.575C639.781 -549.493 543.43 -675.843 543.43 -675.843M645.5 540.5C645.5 540.5 754.325 44.2437 678.035 -252.193C601.745 -548.629 501.042 -671.539 501.042 -671.539M645.5 540.5C645.5 540.5 719.443 37.8614 622.66 -252.531C525.877 -542.924 416.847 -658.51 416.847 -658.51M645.5 540.5C645.5 540.5 701.856 35.587 594.997 -251.251C488.139 -538.089 375.141 -649.8 375.141 -649.8M645.5 540.5C645.5 540.5 684.2 33.9278 567.397 -249.006C450.593 -531.94 333.765 -639.639 333.765 -639.639M645.5 540.5C645.5 540.5 666.498 32.8858 539.891 -245.8C413.284 -524.485 292.769 -628.041 292.769 -628.041M645.5 540.5C645.5 540.5 631.037 32.6577 485.298 -236.517C339.56 -505.692 212.114 -600.589 212.114 -600.589M645.5 540.5C645.5 540.5 613.322 33.4718 458.279 -230.453C303.235 -494.377 172.555 -584.769 172.555 -584.769M645.5 540.5C645.5 540.5 578.032 36.9515 404.956 -215.515C231.879 -467.981 95.2122 -549.037 95.2122 -549.037M645.5 540.5C645.5 540.5 560.5 39.6129 378.718 -206.659C196.935 -452.932 57.523 -529.168 57.523 -529.168M645.5 540.5C645.5 540.5 543.071 42.8844 352.805 -196.894C162.538 -436.672 20.5502 -507.997 20.5502 -507.997M645.5 540.5C645.5 540.5 525.767 46.7624 327.248 -186.23C128.73 -419.221 -15.6609 -485.547 -15.6609 -485.547M645.5 540.5C645.5 540.5 474.813 61.9826 253.028 -148.982C31.2425 -359.947 -119.29 -410.816 -119.29 -410.816M645.5 540.5C645.5 540.5 458.217 68.231 229.204 -134.865C0.191411 -337.961 -152.025 -383.546 -152.025 -383.546M645.5 540.5C645.5 540.5 441.849 75.0549 205.888 -119.925C-30.0733 -314.905 -183.788 -355.15 -183.788 -355.15M645.5 540.5C645.5 540.5 425.729 82.4456 183.107 -104.181C-59.5149 -290.807 -214.54 -325.663 -214.54 -325.663M645.5 540.5C645.5 540.5 409.877 90.3947 160.89 -87.6504C-88.0977 -265.695 -244.245 -295.12 -244.245 -295.12M645.5 540.5C645.5 540.5 394.312 98.8919 139.263 -70.3551C-115.786 -239.602 -272.866 -263.559 -272.866 -263.559M645.5 540.5C645.5 540.5 379.053 107.927 118.253 -52.3155C-142.548 -212.558 -300.368 -231.019 -300.368 -231.019M645.5 540.5C645.5 540.5 364.119 117.49 97.8848 -33.5539C-168.349 -184.597 -326.717 -197.539 -326.717 -197.539M645.5 540.5C645.5 540.5 349.528 127.567 78.1844 -14.0925C-193.159 -155.753 -351.882 -163.159 -351.882 -163.159M645.5 540.5C645.5 540.5 335.297 138.148 59.1749 6.04435C-216.947 -126.06 -375.832 -127.922 -375.832 -127.922M645.5 540.5C645.5 540.5 321.444 149.219 40.8798 26.8323C-239.684 -95.5547 -398.538 -91.8711 -398.538 -91.8711M645.5 540.5C645.5 540.5 307.986 160.767 23.3214 48.2463C-261.343 -64.2745 -419.971 -55.0493 -419.971 -55.0493M645.5 540.5C645.5 540.5 294.939 172.778 6.52088 70.2599C-281.897 -32.2578 -440.106 -17.5022 -440.106 -17.5022M645.5 540.5C645.5 540.5 282.319 185.236 -9.50094 92.8464C-301.321 0.456771 -458.919 20.7248 -458.919 20.7248M645.5 540.5C645.5 540.5 236.41 239.238 -65.428 188.361C-367.266 137.485 -520.51 179.489 -520.51 179.489M645.5 540.5C645.5 540.5 216.392 268.509 -88.2602 238.811C-392.912 209.113 -542.852 261.705 -542.852 261.705M645.5 540.5C645.5 540.5 207.161 283.65 -98.3421 264.603C-403.845 245.555 -551.858 303.348 -551.858 303.348M645.5 540.5C645.5 540.5 198.464 299.104 -107.518 290.73C-413.499 282.356 -559.405 345.279 -559.405 345.279M645.5 540.5C645.5 540.5 190.312 314.853 -115.776 317.163C-421.863 319.472 -565.485 387.449 -565.485 387.449M645.5 540.5C645.5 540.5 182.714 330.876 -123.106 343.867C-428.927 356.857 -570.088 429.805 -570.088 429.805M645.5 540.5C645.5 540.5 175.68 347.155 -129.501 370.81C-434.681 394.466 -573.211 472.296 -573.211 472.296M645.5 540.5C645.5 540.5 169.219 363.669 -134.95 397.961C-439.12 432.253 -574.849 514.87 -574.849 514.87M645.5 540.5C645.5 540.5 163.338 380.399 -139.45 425.285C-442.237 470.172 -575 557.475 -575 557.475M645.5 540.5C645.5 540.5 158.044 397.324 -142.992 452.75C-444.029 508.176 -573.664 600.059 -573.664 600.059M645.5 540.5C645.5 540.5 153.344 414.423 -145.575 480.321C-444.493 546.22 -570.843 642.571 -570.843 642.571M645.5 540.5C645.5 540.5 149.244 431.676 -147.193 507.966C-443.63 584.256 -566.54 684.959 -566.54 684.959M645.5 540.5C645.5 540.5 145.748 449.061 -147.845 535.65C-441.439 622.24 -560.76 727.17 -560.76 727.17M645.5 540.5C645.5 540.5 142.861 466.558 -147.531 563.341C-437.924 660.123 -553.51 769.154 -553.51 769.154M645.5 540.5C645.5 540.5 140.587 484.145 -146.251 591.003C-433.09 697.861 -544.8 810.86 -544.8 810.86M645.5 540.5C645.5 540.5 138.928 501.8 -144.007 618.604C-426.941 735.408 -534.64 852.236 -534.64 852.236M645.5 540.5C645.5 540.5 137.886 519.503 -140.8 646.11C-419.485 772.717 -523.041 893.232 -523.041 893.232M645.5 540.5C645.5 540.5 137.462 537.231 -136.635 673.487C-410.732 809.743 -510.019 933.799 -510.019 933.799M645.5 540.5C645.5 540.5 137.658 554.963 -131.517 700.702C-400.692 846.441 -495.589 973.886 -495.589 973.886M645.5 540.5C645.5 540.5 138.472 572.678 -125.453 727.722C-389.378 882.766 -479.769 1013.45 -479.769 1013.45M645.5 540.5C645.5 540.5 139.903 590.353 -118.45 754.514C-376.803 918.674 -462.578 1052.43 -462.578 1052.43M645.5 540.5C645.5 540.5 141.951 607.968 -110.515 781.045C-362.982 954.122 -444.037 1090.79 -444.037 1090.79M645.5 540.5C645.5 540.5 144.613 625.501 -101.66 807.283C-347.932 989.065 -424.169 1128.48 -424.169 1128.48M645.5 540.5C645.5 540.5 147.884 642.93 -91.8939 833.196C-331.672 1023.46 -402.997 1165.45 -402.997 1165.45M645.5 540.5C645.5 540.5 151.762 660.234 -81.2299 858.752C-314.222 1057.27 -380.548 1201.66 -380.548 1201.66M645.5 540.5C645.5 540.5 156.242 677.392 -69.6805 883.921C-295.602 1090.45 -356.849 1237.07 -356.849 1237.07M645.5 540.5C645.5 540.5 161.317 694.383 -57.2596 908.671C-275.836 1122.96 -331.928 1271.62 -331.928 1271.62M645.5 540.5C645.5 540.5 166.982 711.188 -43.9824 932.973C-254.947 1154.76 -305.817 1305.29 -305.817 1305.29M645.5 540.5C645.5 540.5 173.231 727.783 -29.8655 956.796C-232.962 1185.81 -278.547 1338.03 -278.547 1338.03M645.5 540.5C645.5 540.5 180.055 744.151 -14.9254 980.113C-209.906 1216.07 -250.151 1369.79 -250.151 1369.79M645.5 540.5C645.5 540.5 187.446 760.271 0.819163 1002.89C-185.807 1245.52 -220.663 1400.54 -220.663 1400.54M645.5 540.5C645.5 540.5 195.394 776.123 17.3491 1025.11C-160.696 1274.1 -190.121 1430.25 -190.121 1430.25M645.5 540.5C645.5 540.5 203.892 791.688 34.6444 1046.74C-134.603 1301.79 -158.56 1458.87 -158.56 1458.87M645.5 540.5C645.5 540.5 212.927 806.947 52.6839 1067.75C-107.559 1328.55 -126.02 1486.37 -126.02 1486.37M645.5 540.5C645.5 540.5 222.489 821.881 71.4458 1088.12C-79.5979 1354.35 -92.5393 1512.72 -92.5393 1512.72M645.5 540.5C645.5 540.5 232.567 836.473 90.9068 1107.82C-50.7535 1379.16 -58.1599 1537.88 -58.1599 1537.88M645.5 540.5C645.5 540.5 243.148 850.703 111.044 1126.83C-21.0603 1402.95 -22.923 1561.83 -22.923 1561.83M645.5 540.5C645.5 540.5 254.219 864.556 131.832 1145.12C9.44465 1425.68 13.1281 1584.54 13.1281 1584.54M645.5 540.5C645.5 540.5 265.767 878.014 153.246 1162.68C40.7247 1447.34 49.9498 1605.97 49.9498 1605.97M645.5 540.5C645.5 540.5 277.777 891.061 175.259 1179.48C72.7413 1467.9 87.4969 1626.11 87.4969 1626.11M645.5 540.5C645.5 540.5 290.236 903.681 197.846 1195.5C105.456 1487.32 125.724 1644.92 125.724 1644.92M645.5 540.5C645.5 540.5 303.127 915.858 220.978 1210.73C138.829 1505.59 164.584 1662.39 164.584 1662.39M645.5 540.5C645.5 540.5 316.435 927.578 244.627 1225.13C172.818 1522.69 204.03 1678.49 204.03 1678.49M645.5 540.5C645.5 540.5 330.144 938.827 268.764 1238.71C207.384 1538.58 244.015 1693.2 244.015 1693.2M645.5 540.5C645.5 540.5 344.238 949.59 293.361 1251.43C242.484 1553.27 284.488 1706.51 284.488 1706.51M645.5 540.5C645.5 540.5 358.699 959.855 318.386 1263.28C278.074 1566.71 325.401 1718.4 325.401 1718.4M645.5 540.5C645.5 540.5 373.509 969.608 343.811 1274.26C314.113 1578.91 366.704 1728.85 366.704 1728.85M645.5 540.5C645.5 540.5 388.65 978.839 369.602 1284.34C350.554 1589.85 408.347 1737.86 408.347 1737.86M645.5 540.5C645.5 540.5 404.104 987.536 395.73 1293.52C387.356 1599.5 450.278 1745.41 450.278 1745.41M645.5 540.5C645.5 540.5 419.853 995.688 422.162 1301.78C424.472 1607.86 492.448 1751.48 492.448 1751.48M645.5 540.5C645.5 540.5 435.876 1003.29 448.866 1309.11C461.857 1614.93 534.804 1756.09 534.804 1756.09M645.5 540.5C645.5 540.5 452.155 1010.32 475.81 1315.5C499.465 1620.68 577.295 1759.21 577.295 1759.21M645.5 540.5C645.5 540.5 468.669 1016.78 502.961 1320.95C537.252 1625.12 619.869 1760.85 619.869 1760.85M645.5 540.5C645.5 540.5 485.398 1022.66 530.285 1325.45C575.171 1628.24 662.474 1761 662.474 1761M645.5 540.5C645.5 540.5 502.323 1027.96 557.749 1328.99C613.175 1630.03 705.058 1759.66 705.058 1759.66M645.5 540.5C645.5 540.5 519.422 1032.66 585.321 1331.57C651.219 1630.49 747.57 1756.84 747.57 1756.84M645.5 540.5C645.5 540.5 536.675 1036.76 612.965 1333.19C689.255 1629.63 789.958 1752.54 789.958 1752.54M645.5 540.5C645.5 540.5 554.061 1040.25 640.65 1333.85C727.239 1627.44 832.169 1746.76 832.169 1746.76M645.5 540.5C645.5 540.5 571.557 1043.14 668.34 1333.53C765.123 1623.92 874.154 1739.51 874.154 1739.51M645.5 540.5C645.5 540.5 589.144 1045.41 696.003 1332.25C802.861 1619.09 915.859 1730.8 915.859 1730.8M645.5 540.5C645.5 540.5 606.8 1047.07 723.604 1330.01C840.407 1612.94 957.235 1720.64 957.235 1720.64M645.5 540.5C645.5 540.5 624.503 1048.11 751.109 1326.8C877.716 1605.49 998.232 1709.04 998.232 1709.04M645.5 540.5C645.5 540.5 642.231 1048.54 778.486 1322.63C914.742 1596.73 1038.8 1696.02 1038.8 1696.02M1006.5 -625.518C1006.5 -625.518 1048.51 -472.274 997.63 -170.436C946.753 131.402 645.491 540.492 645.491 540.492M645.491 540.492C645.491 540.492 932.292 121.138 972.605 -182.292C1012.92 -485.723 965.59 -637.407 965.59 -637.407M645.491 540.492C645.491 540.492 736.93 40.7402 650.341 -252.853C563.752 -546.447 458.822 -665.768 458.822 -665.768M645.491 540.492C645.491 540.492 648.76 32.4543 512.505 -241.643C376.249 -515.74 252.193 -615.027 252.193 -615.027M645.491 540.492C645.491 540.492 595.638 34.8957 431.478 -223.457C267.317 -481.81 133.563 -567.586 133.563 -567.586M645.491 540.492C645.491 540.492 508.599 51.2339 302.071 -174.688C95.5419 -400.61 -51.0759 -461.856 -51.0759 -461.856M645.491 540.492C645.491 540.492 491.608 56.3092 277.32 -162.267C63.0327 -380.844 -85.633 -436.936 -85.633 -436.936M645.491 540.492C645.491 540.492 270.133 198.119 -24.7338 115.97C-319.601 33.8214 -476.395 59.5771 -476.395 59.5771M645.491 540.492C645.491 540.492 258.413 211.428 -39.1413 139.619C-336.695 67.8112 -492.496 99.0233 -492.496 99.0233M645.491 540.492C645.491 540.492 247.164 225.137 -52.7146 163.757C-352.594 102.377 -507.209 139.008 -507.209 139.008M645.491 540.492C645.491 540.492 226.137 253.691 -77.2933 213.379C-380.723 173.067 -532.408 220.394 -532.408 220.394" stroke="url(#paint1_linear_0_4)" stroke-width="2"/>
</g>
<defs>
<radialGradient id="paint0_radial_0_4" cx="0" cy="0" r="1" gradientUnits="userSpaceOnUse" gradientTransform="translate(647.74 173.906) rotate(-35.1592) scale(2885.14 1119.77)">
<stop stop-color="#F23B27"/>
<stop offset="0.119792" stop-color="#1AB7FA"/>
<stop offset="0.260417" stop-color="#9851F9"/>
<stop offset="0.442708" stop-color="#FD605B"/>
<stop offset="0.583333" stop-color="#1BCA7C"/>
<stop offset="0.697917" stop-color="#F23B27"/>
<stop offset="0.822917" stop-color="#9851F9"/>
<stop offset="0.927083" stop-color="#1AB7FA"/>
</radialGradient>
<linearGradient id="paint1_linear_0_4" x1="2762.5" y1="-325.5" x2="683.5" y2="724" gradientUnits="userSpaceOnUse">
<stop stop-color="#F23B27"/>
<stop offset="0.119792" stop-color="#1AB7FA"/>
<stop offset="0.260417" stop-color="#9851F9"/>
<stop offset="0.442708" stop-color="#FD605B"/>
<stop offset="0.583333" stop-color="#1BCA7C"/>
<stop offset="0.697917" stop-color="#F23B27"/>
<stop offset="0.822917" stop-color="#9851F9"/>
<stop offset="1" stop-color="#1AB7FA"/>
</linearGradient>
</defs>
</svg>
